<svg width="160" height="53" viewBox="0 0 160 53" fill="none" xmlns="http://www.w3.org/2000/svg">
<g clip-path="url(#clip0_1_359)">
<path opacity="0.1" d="M155.003 0.565308H4.60948C2.26976 0.565308 0.373047 2.60172 0.373047 5.11375V48.324C0.373047 50.836 2.26976 52.8724 4.60948 52.8724H155.003C157.342 52.8724 159.239 50.836 159.239 48.324V5.11375C159.239 2.60172 157.342 0.565308 155.003 0.565308Z" fill="#3A3A3A"/>
<path fill-rule="evenodd" clip-rule="evenodd" d="M35.2819 30.1302C35.7703 30.1293 36.2433 29.9465 36.6203 29.6131C36.9973 29.2797 37.2549 28.8163 37.3493 28.3017L38.4084 22.6162C38.4697 22.2866 38.4623 21.9466 38.3866 21.6205C38.3109 21.2944 38.1689 20.9904 37.9707 20.7303C37.7725 20.4702 37.5231 20.2605 37.2404 20.1163C36.9577 19.972 36.6487 19.8969 36.3357 19.8962H25.7912V18.7591C25.7912 18.4575 25.6796 18.1683 25.4809 17.955C25.2823 17.7418 25.0129 17.6219 24.732 17.6219H22.6234C22.3425 17.6219 22.0731 17.7418 21.8744 17.955C21.6758 18.1683 21.5642 18.4575 21.5642 18.7591C21.5642 19.0606 21.6758 19.3499 21.8744 19.5631C22.0731 19.7764 22.3425 19.8962 22.6234 19.8962H23.6825V31.2673C23.2631 31.2653 22.8526 31.3969 22.5031 31.6456C22.1535 31.8943 21.8805 32.2487 21.7187 32.6641C21.5569 33.0795 21.5136 33.5371 21.5942 33.9789C21.6749 34.4207 21.8759 34.8269 22.1717 35.146C22.4676 35.4651 22.845 35.6827 23.2561 35.7712C23.6673 35.8598 24.0937 35.8154 24.4813 35.6436C24.8689 35.4718 25.2003 35.1803 25.4335 34.8061C25.6667 34.4318 25.7912 33.9917 25.7912 33.5415H33.1721C33.1738 33.9891 33.2989 34.4261 33.5318 34.7974C33.7646 35.1687 34.0947 35.4577 34.4804 35.6277C34.866 35.7978 35.2899 35.8414 35.6986 35.7529C36.1073 35.6645 36.4824 35.448 36.7766 35.1309C37.0709 34.8137 37.271 34.4101 37.3517 33.971C37.4324 33.5318 37.3901 33.0769 37.2302 32.6635C37.0703 32.2501 36.7999 31.8969 36.4531 31.6484C36.1063 31.3999 35.6988 31.2673 35.2819 31.2673H25.7912V30.1302H35.2819ZM36.341 22.1704L35.2819 27.856H25.7912V22.1704H36.3357H36.341Z" fill="#3A3A3A"/>
<path d="M64.2414 29.9163L59.9374 19.2443H58.2894L54.0014 29.9163H55.5214L56.4654 27.5483H61.7774L62.7214 29.9163H64.2414ZM61.3774 26.3643H56.8494L59.1214 20.6203L61.3774 26.3643ZM72.3887 29.9163V19.2443H71.1887V23.3563C70.5647 22.5083 69.6207 21.9963 68.5807 21.9963C66.5487 21.9963 65.1407 23.5963 65.1407 26.0603C65.1407 28.5723 66.5647 30.1083 68.5807 30.1083C69.6687 30.1083 70.6127 29.5483 71.1887 28.7643V29.9163H72.3887ZM68.8687 29.0363C67.3167 29.0363 66.3887 27.7723 66.3887 26.0603C66.3887 24.3483 67.3167 23.0683 68.8687 23.0683C69.8287 23.0683 70.7567 23.6443 71.1887 24.3163V27.8203C70.7567 28.4923 69.8287 29.0363 68.8687 29.0363ZM81.5918 29.9163V19.2443H80.3918V23.3563C79.7678 22.5083 78.8238 21.9963 77.7838 21.9963C75.7518 21.9963 74.3438 23.5963 74.3438 26.0603C74.3438 28.5723 75.7678 30.1083 77.7838 30.1083C78.8718 30.1083 79.8158 29.5483 80.3918 28.7643V29.9163H81.5918ZM78.0718 29.0363C76.5198 29.0363 75.5918 27.7723 75.5918 26.0603C75.5918 24.3483 76.5198 23.0683 78.0718 23.0683C79.0318 23.0683 79.9598 23.6443 80.3918 24.3163V27.8203C79.9598 28.4923 79.0318 29.0363 78.0718 29.0363ZM92.1359 29.9163V20.4283H95.5279V19.2443H87.4319V20.4283H90.8079V29.9163H92.1359ZM98.7772 30.1083C101.129 30.1083 102.601 28.2843 102.601 26.0443C102.601 23.8043 101.129 21.9963 98.7772 21.9963C96.4252 21.9963 94.9532 23.8043 94.9532 26.0443C94.9532 28.2843 96.4252 30.1083 98.7772 30.1083ZM98.7772 29.0363C97.1292 29.0363 96.2012 27.6283 96.2012 26.0443C96.2012 24.4763 97.1292 23.0683 98.7772 23.0683C100.425 23.0683 101.337 24.4763 101.337 26.0443C101.337 27.6283 100.425 29.0363 98.7772 29.0363ZM113.786 30.1083C115.674 30.1083 116.954 29.2123 117.85 27.9963L116.714 27.3723C116.106 28.2843 115.002 28.9243 113.786 28.9243C111.45 28.9243 109.674 27.1163 109.674 24.5883C109.674 22.0443 111.45 20.2523 113.786 20.2523C115.002 20.2523 116.106 20.9083 116.714 21.8043L117.834 21.1803C116.986 19.9803 115.674 19.0683 113.786 19.0683C110.714 19.0683 108.298 21.3083 108.298 24.5883C108.298 27.8683 110.714 30.1083 113.786 30.1083ZM125.527 29.9163V24.6043C125.527 22.7323 124.167 21.9963 122.535 21.9963C121.271 21.9963 120.279 22.4123 119.447 23.2763L120.007 24.1083C120.695 23.3723 121.447 23.0363 122.375 23.0363C123.495 23.0363 124.327 23.6283 124.327 24.6683V26.0603C123.703 25.3403 122.823 25.0043 121.767 25.0043C120.455 25.0043 119.063 25.8203 119.063 27.5483C119.063 29.2283 120.455 30.1083 121.767 30.1083C122.807 30.1083 123.687 29.7403 124.327 29.0363V29.9163H125.527ZM122.199 29.2443C121.079 29.2443 120.295 28.5403 120.295 27.5643C120.295 26.5723 121.079 25.8683 122.199 25.8683C123.047 25.8683 123.863 26.1883 124.327 26.8283V28.2843C123.863 28.9243 123.047 29.2443 122.199 29.2443ZM129.132 29.9163V24.4443C129.484 23.8203 130.492 23.2123 131.228 23.2123C131.42 23.2123 131.564 23.2283 131.708 23.2603V22.0283C130.652 22.0283 129.756 22.6203 129.132 23.4363V22.1883H127.932V29.9163H129.132ZM135.166 30.1083C135.87 30.1083 136.302 29.9003 136.606 29.6123L136.254 28.7163C136.094 28.8923 135.774 29.0363 135.438 29.0363C134.91 29.0363 134.654 28.6203 134.654 28.0443V23.2443H136.222V22.1883H134.654V20.0763H133.454V22.1883H132.174V23.2443H133.454V28.3003C133.454 29.4523 134.03 30.1083 135.166 30.1083Z" fill="#3A3A3A"/>
</g>
<defs>
<clipPath id="clip0_1_359">
<rect width="158.866" height="52.3071" fill="white" transform="translate(0.373047 0.565308)"/>
</clipPath>
</defs>
</svg>
