<svg width="49" height="53" viewBox="0 0 49 53" fill="none" xmlns="http://www.w3.org/2000/svg">
<g clip-path="url(#clip0_1_360)">
<path fill-rule="evenodd" clip-rule="evenodd" d="M27.699 21.0333C28.3107 21.0344 28.9091 21.225 29.4224 21.5823C29.9356 21.9396 30.3419 22.4484 30.5924 23.0476C30.8429 23.6467 30.927 24.3108 30.8346 24.96C30.7422 25.6092 30.4772 26.216 30.0714 26.7074C29.4889 27.4125 24.5217 32.4044 24.5217 32.4044C24.5217 32.4044 19.5439 27.4124 18.9614 26.6961C18.4475 26.0761 18.1647 25.2745 18.1671 24.4446C18.1671 23.5399 18.5018 22.6722 19.0977 22.0324C19.6935 21.3927 20.5017 21.0333 21.3444 21.0333C22.1871 21.0333 22.9952 21.3927 23.5911 22.0324C24.187 22.6722 24.5217 23.5399 24.5217 24.4446C24.5217 23.5399 24.8564 22.6722 25.4523 22.0324C26.0482 21.3927 26.8563 21.0333 27.699 21.0333ZM27.699 18.759C26.5529 18.7568 25.4374 19.156 24.5217 19.8962C23.4728 19.0644 22.175 18.6774 20.8768 18.8093C19.5787 18.9412 18.3714 19.5827 17.4864 20.6109C16.6015 21.6391 16.1009 22.9817 16.0807 24.3815C16.0605 25.7813 16.5221 27.1399 17.377 28.1971C17.9722 28.9294 21.8898 32.8683 23.076 34.0577C23.4684 34.4517 23.9855 34.6708 24.5227 34.6708C25.0599 34.6708 25.5771 34.4517 25.9695 34.0577C27.1515 32.8694 31.0532 28.9407 31.6559 28.2095C32.3304 27.3901 32.7704 26.3791 32.9233 25.2979C33.0762 24.2166 32.9354 23.111 32.5177 22.1135C32.1001 21.116 31.4234 20.269 30.5687 19.674C29.714 19.079 28.7176 18.7614 27.699 18.759V18.759Z" fill="#3A3A3A"/>
<path opacity="0.1" d="M44.6641 0.565308H4.41807C2.07835 0.565308 0.181641 2.60172 0.181641 5.11375V48.324C0.181641 50.836 2.07835 52.8724 4.41807 52.8724H44.6641C47.0038 52.8724 48.9005 50.836 48.9005 48.324V5.11375C48.9005 2.60172 47.0038 0.565308 44.6641 0.565308Z" fill="#3A3A3A"/>
</g>
<defs>
<clipPath id="clip0_1_360">
<rect width="48.7189" height="52.3071" fill="white" transform="translate(0.181641 0.565308)"/>
</clipPath>
</defs>
</svg>
