<svg width="41" height="41" viewBox="0 0 41 41" fill="none" xmlns="http://www.w3.org/2000/svg">
<g clip-path="url(#clip0_1_361)">
<path d="M13.8882 30.4017L14.9736 30.982C16.6558 31.8813 18.5343 32.3505 20.4418 32.3476L20.4468 32.3476C26.8683 32.3476 32.0736 27.1423 32.0736 20.7208C32.0736 14.2993 26.8683 9.09404 20.4468 9.09404C14.0253 9.09404 8.82 14.2993 8.82 20.7208V20.7258C8.81713 22.6333 9.28626 24.5118 10.1856 26.194L10.7659 27.2794L9.87359 31.294L13.8882 30.4017ZM5.49806 35.6695L7.25603 27.7602C6.0983 25.5947 5.49437 23.1764 5.49806 20.7208C5.49806 12.4646 12.1906 5.77209 20.4468 5.77209C28.703 5.77209 35.3955 12.4646 35.3955 20.7208C35.3955 28.977 28.703 35.6695 20.4468 35.6695C17.9912 35.6732 15.5729 35.0693 13.4074 33.9116L5.49806 35.6695Z" fill="#D83419"/>
</g>
<defs>
<clipPath id="clip0_1_361">
<rect width="39.8633" height="39.8633" fill="white" transform="translate(0.513672 0.789185)"/>
</clipPath>
</defs>
</svg>
